<svg xmlns="http://www.w3.org/2000/svg" viewBox="0 0 64 64" width="64" height="64"><circle cx="32" cy="33" r="28" opacity=".2"/><circle cx="32" cy="32" r="28" fill="#7158e0"/><path d="m22.6 39.9c1.09-0.313 3.58-1.59 5.71-2.92 1.78-1.12 3.48-2.07 3.71-2.07 0.225 0 1.27 0.58 3.77 2.1 2.69 1.64 4.71 2.66 5.77 2.92 0.613 0.153 1.04 0.104 1.61-0.182 1.11-0.558 2.64-1.79 4.55-3.66 2.59-2.53 4.97-5.49 5.27-6.56 0.103-0.363 0.0134-0.436-0.539-0.423-0.885 0.0206-2.02 0.327-6.65 1.8-1.93 0.614-3.31 0.994-3.6 0.994-0.456 0-2.06-0.925-4.33-2.5-1.1-0.763-3.36-2.23-4.05-2.64-0.986-0.579-1.5-0.778-1.9-0.74-0.689 0.0641-1.92 0.798-6.27 3.73-2.08 1.4-3.2 2.06-3.66 2.13-0.38 0.0637-0.905-0.0834-5.99-1.68-1.63-0.512-2.88-0.86-3.59-0.998-0.502-0.0981-1.2-0.131-1.31-0.0622-0.384 0.246 0.682 1.97 2.51 4.06 3.01 3.45 6.22 6.25 7.74 6.75 0.259 0.0856 0.847 0.0568 1.26-0.0619z" opacity=".2"/><path d="m22.6 38.9c1.09-0.313 3.58-1.59 5.71-2.92 1.78-1.12 3.48-2.07 3.71-2.07 0.225 0 1.27 0.58 3.77 2.1 2.69 1.64 4.71 2.66 5.77 2.92 0.613 0.153 1.04 0.104 1.61-0.182 1.11-0.558 2.64-1.79 4.55-3.66 2.59-2.53 4.97-5.49 5.27-6.56 0.103-0.363 0.0134-0.436-0.539-0.423-0.885 0.0206-2.02 0.327-6.65 1.8-1.93 0.614-3.31 0.994-3.6 0.994-0.456 0-2.06-0.925-4.33-2.5-1.1-0.763-3.36-2.23-4.05-2.64-0.986-0.579-1.5-0.778-1.9-0.74-0.689 0.0641-1.92 0.798-6.27 3.73-2.08 1.4-3.2 2.06-3.66 2.13-0.38 0.0637-0.905-0.0834-5.99-1.68-1.63-0.512-2.88-0.86-3.59-0.998-0.502-0.0981-1.2-0.131-1.31-0.0622-0.384 0.246 0.682 1.97 2.51 4.06 3.01 3.45 6.22 6.25 7.74 6.75 0.259 0.0856 0.847 0.0568 1.26-0.0619z" fill="#fff"/><path d="m32 4a28 28 0 0 0-28 28 28 28 0 0 0 0.0332 0.482 28 28 0 0 1 28-27.5 28 28 0 0 1 28 27.2 28 28 0 0 0 0.0176-0.242 28 28 0 0 0-28-28z" fill="#fff" opacity=".1"/></svg>
