<svg xmlns="http://www.w3.org/2000/svg" viewBox="0 0 64 64" width="64" height="64"><path d="m32 5c-15.5 0-28 12.5-28 28s12.5 28 28 28 28-12.5 28-28-12.5-28-28-28z" opacity=".2"/><path d="m32 4c-15.5 0-28 12.5-28 28s12.5 28 28 28 28-12.5 28-28-12.5-28-28-28z" fill="#e4e4e4"/><path d="m33.7 18c-3.7 0-5.95 4.14-7.36 7.82l-1.78 5.4-2.26 7.24c-0.702 2.04-1.2 5.28-3.34 5.54-0.936 0.114-0.895-2-2-2s-2 0.895-2 2 0.895 2 2 2h1.26c4.28 0 6.72-5.38 8.55-11.3l1.03-3.34 1.64-5.28c0.847-2.18 1.2-5.77 3.52-6.07 0.935-0.122 0.895 2 2 2s2-0.895 2-2c0-1.1-0.895-2-2-2z" fill="#404040"/><rect x="19" y="28" width="16" height="2" fill="#404040"/><path d="m45.7 18c-3.7 0-5.95 4.14-7.36 7.82l-1.78 5.4-2.26 7.24c-0.702 2.04-1.2 5.28-3.34 5.54-0.936 0.114-0.895-2-2-2s-2 0.895-2 2 0.895 2 2 2h1.26c4.28 0 6.72-5.38 8.55-11.3l1.03-3.34 1.64-5.28c0.847-2.18 1.2-5.77 3.52-6.07 0.935-0.122 0.895 2 2 2s2-0.895 2-2c0-1.1-0.895-2-2-2z" fill="#404040"/><rect x="31" y="28" width="16" height="2" fill="#404040"/><path d="m32 4c-15.5 0-28 12.5-28 28 0 0.113 0.0113 0.224 0.0176 0.336 0.352-15.2 12.7-27.3 28-27.3s27.6 12.1 28 27.3c0.0063-0.112 0.0176-0.222 0.0176-0.336 0-15.5-12.5-28-28-28z" fill="#fff" opacity=".2"/></svg>
