<svg xmlns="http://www.w3.org/2000/svg" viewBox="0 0 64 64" width="64" height="64"><rect x="4" y="5" width="56" height="56" rx="2.8" ry="2.8" opacity=".2"/><rect x="4" y="4" width="56" height="56" rx="2.8" ry="2.8" fill="#e4e4e4"/><g transform="matrix(2,0,0,2,1,1)" fill="#d07517"><rect x="14" y="14" width="3" height="3" ry=".721"/><rect x="14" y="10" width="3" height="3" ry=".721"/><rect x="14" y="22" width="3" height="3" ry=".721"/><rect x="14" y="18" width="3" height="3" ry=".721"/><rect x="14" y="6" width="3" height="3" ry=".721"/><rect x="10" y="6" width="3" height="3" ry=".721"/><rect x="6" y="6" width="3" height="3" ry=".721"/><rect x="22" y="6" width="3" height="3" ry=".721"/><rect x="18" y="6" width="3" height="3" ry=".721"/></g><path d="m6.8 4c-1.55 0-2.8 1.25-2.8 2.8v1c0-1.55 1.25-2.8 2.8-2.8h50.4c1.55 0 2.8 1.25 2.8 2.8v-1c0-1.55-1.25-2.8-2.8-2.8h-50.4z" fill="#fff" opacity=".2"/></svg>
