<svg xmlns="http://www.w3.org/2000/svg" viewBox="0 0 64 64" width="64" height="64"><path d="m40.4 7.09c-0.64-0.369-1.45-0.152-1.82 0.488l-1.81 3.14a24 24 0 0 0-26.5 11.3 24 24 0 0 0 8.78 32.8 24 24 0 0 0 32.8-8.78 24 24 0 0 0-3.49-28.6l1.82-3.14c0.369-0.64 0.152-1.45-0.488-1.82l-9.24-5.33z" opacity=".2"/><rect transform="rotate(30)" x="41.4" y="-21.8" width="4" height="12" rx=".525" ry=".534" fill="#ffd38d"/><path d="m40.4 6.08c-0.64-0.369-1.45-0.152-1.82 0.488l-1.81 3.14a24 24 0 0 0-26.5 11.3 24 24 0 0 0 8.78 32.8 24 24 0 0 0 32.8-8.78 24 24 0 0 0-3.49-28.6l1.82-3.14c0.369-0.64 0.152-1.45-0.488-1.82l-9.24-5.33z" fill="#4f4f4f"/><path d="m29 16c-0.354-0.0025-0.675 0.0101-0.957 0.0352-2.65 0.236-6.11 2.6-9.03 6.18-2.83 3.46-3.65 6.23-2.44 8.26 1.36 2.29 2.94 3.6 5.13 4.25 1.88 0.562 2.44 0.903 4.05 2.46 2.6 2.51 3.49 2.8 8.96 2.81 2.31 7e-3 5.09-0.0877 6.18-0.207 1.61-0.176 2.29-0.382 3.62-1.11 3.53-1.93 4.1-3.24 3.06-7.02-0.324-1.18-0.854-3.67-1.18-5.54-0.322-1.87-0.727-3.68-0.902-4.04-0.781-1.57-3.29-3.08-7.62-4.59-2.37-0.825-6.38-1.49-8.86-1.5zm-1.54 8c2.1 0.0883 2.57 1.93 2.56 3.5 0 2.22-0.32 3.08-1.47 3.93-0.858 0.635-2.95 0.766-3.58 0.223-0.655-0.568-0.949-1.63-0.949-3.43 0-2.72 1.23-4.23 3.44-4.23zm10.7 0h4e-3c0.518-9e-3 1.07 0.156 1.73 0.488 0.686 0.344 1.45 0.901 1.71 1.23 0.61 0.796 0.614 2.59 0.0118 4.58-0.91 3.01-2.72 4.22-5.21 3.48-0.958-0.285-2.09-1.64-2.29-2.74-0.329-1.79 1.14-5.58 2.52-6.5 0.525-0.353 1.01-0.533 1.53-0.543zm-17.5 12c-0.841-5e-3 -1.74 0.275-2.59 0.844-1.05 0.698-3.11 3.12-3.65 4.32-1.03 2.26 0.681 5.75 3.25 6.62 0.905 0.307 0.919 0.305 1.74-0.0898 0.974-0.469 1.45-1.1 3.14-4.16 1.14-2.06 1.44-2.84 1.53-3.89 0.0933-1.19 0.0319-1.4-0.629-2.25-0.714-0.92-1.7-1.39-2.79-1.4zm8.32 6c-1.94 0-3.32 1.22-4.22 3.72-0.779 2.17-0.867 4.01-0.223 4.66 1.12 1.12 5.28 2.03 6.55 1.43 0.529-0.251 0.694-0.625 0.945-2.15 0.241-1.46-0.0942-4.72-0.613-5.97-0.463-1.12-1.28-1.69-2.44-1.69zm9.11 0c-0.174-0.0013-0.376 0.0094-0.617 0.0273-1.44 0.11-2.22 0.599-2.91 1.83-0.463 0.822-0.506 1.12-0.41 2.79 0.119 2.08 0.439 3.14 1 3.3 0.603 0.166 3.31-0.0777 4.5-0.406 1.46-0.404 2.46-1.2 2.46-1.96 0-0.81-2.1-4.65-2.85-5.2-0.372-0.274-0.65-0.378-1.17-0.383z" opacity=".2"/><path d="m29 15c-0.354-0.0025-0.675 0.0101-0.957 0.0352-2.65 0.236-6.11 2.6-9.03 6.18-2.83 3.46-3.65 6.23-2.44 8.26 1.36 2.29 2.94 3.6 5.13 4.25 1.88 0.562 2.44 0.903 4.05 2.46 2.6 2.51 3.49 2.8 8.96 2.81 2.31 7e-3 5.09-0.0877 6.18-0.207 1.61-0.176 2.29-0.382 3.62-1.11 3.53-1.93 4.1-3.24 3.06-7.02-0.324-1.18-0.854-3.67-1.18-5.54-0.322-1.87-0.727-3.68-0.902-4.04-0.781-1.57-3.29-3.08-7.62-4.59-2.37-0.825-6.38-1.49-8.86-1.5zm-1.54 8c2.1 0.0883 2.57 1.93 2.56 3.5 0 2.22-0.32 3.08-1.47 3.93-0.858 0.635-2.95 0.766-3.58 0.223-0.655-0.568-0.949-1.63-0.949-3.43 0-2.72 1.23-4.23 3.44-4.23zm10.7 0h4e-3c0.518-9e-3 1.07 0.156 1.73 0.488 0.686 0.344 1.45 0.901 1.71 1.23 0.61 0.796 0.614 2.59 0.0118 4.58-0.91 3.01-2.72 4.22-5.21 3.48-0.958-0.285-2.09-1.64-2.29-2.74-0.329-1.79 1.14-5.58 2.52-6.5 0.525-0.353 1.01-0.533 1.53-0.543zm-17.5 12c-0.841-5e-3 -1.74 0.275-2.59 0.844-1.05 0.698-3.11 3.12-3.65 4.32-1.03 2.26 0.681 5.75 3.25 6.62 0.905 0.307 0.919 0.305 1.74-0.0898 0.974-0.469 1.45-1.1 3.14-4.16 1.14-2.06 1.44-2.84 1.53-3.89 0.0933-1.19 0.0319-1.4-0.629-2.25-0.714-0.92-1.7-1.39-2.79-1.4zm8.32 6c-1.94 0-3.32 1.22-4.22 3.72-0.779 2.17-0.867 4.01-0.223 4.66 1.12 1.12 5.28 2.03 6.55 1.43 0.529-0.251 0.694-0.625 0.945-2.15 0.241-1.46-0.0942-4.72-0.613-5.97-0.463-1.12-1.28-1.69-2.44-1.69zm9.11 0c-0.174-0.0013-0.376 0.0094-0.617 0.0273-1.44 0.11-2.22 0.599-2.91 1.83-0.463 0.822-0.506 1.12-0.41 2.79 0.119 2.08 0.439 3.14 1 3.3 0.603 0.166 3.31-0.0777 4.5-0.406 1.46-0.404 2.46-1.2 2.46-1.96 0-0.81-2.1-4.65-2.85-5.2-0.372-0.274-0.65-0.378-1.17-0.383z" fill="#cbcbcb"/><path d="m29 15c-0.354-0.0025-0.675 0.0101-0.957 0.0352-2.65 0.236-6.11 2.6-9.04 6.18-2.16 2.64-3.14 4.88-2.95 6.7 0.184-1.62 1.17-3.52 2.95-5.7 2.93-3.58 6.39-5.94 9.04-6.18 0.282-0.025 0.604-0.0377 0.957-0.0352 2.47 0.0176 6.49 0.678 8.86 1.5 4.33 1.51 6.84 3.02 7.62 4.59 0.176 0.353 0.58 2.17 0.902 4.04 0.322 1.87 0.852 4.36 1.18 5.54 0.232 0.844 0.369 1.55 0.426 2.18 0.088-0.85-0.0621-1.86-0.426-3.18-0.324-1.18-0.854-3.67-1.18-5.54-0.322-1.87-0.727-3.68-0.902-4.04-0.781-1.57-3.29-3.08-7.62-4.59-2.37-0.825-6.38-1.49-8.86-1.5zm1.01 11.9c-0.047 1.88-0.387 2.72-1.45 3.5-0.858 0.635-2.95 0.766-3.58 0.223-0.58-0.502-0.863-1.43-0.924-2.88-0.00804 0.148-0.0254 0.285-0.0254 0.441 0 1.8 0.294 2.87 0.949 3.43 0.627 0.543 2.72 0.412 3.58-0.223 1.15-0.85 1.47-1.71 1.47-3.93 0.00131-0.187-0.00521-0.379-0.0195-0.57zm12 0.188c-0.0511 0.667-0.192 1.41-0.426 2.18-0.91 3.01-2.72 4.22-5.21 3.48-0.958-0.285-2.09-1.64-2.29-2.74-0.00446-0.0243-9.9e-5 -0.0571-0.00391-0.082-0.0393 0.399-0.0524 0.776 0.00391 1.08 0.204 1.11 1.33 2.46 2.29 2.74 2.49 0.74 4.3-0.474 5.21-3.48 0.36-1.19 0.499-2.31 0.426-3.18zm-21.4 7.88c-0.841-5e-3 -1.74 0.275-2.59 0.844-1.05 0.698-3.11 3.12-3.65 4.32-0.276 0.603-0.349 1.29-0.27 2 0.0427-0.349 0.127-0.686 0.27-0.998 0.545-1.19 2.6-3.62 3.65-4.32 0.859-0.569 1.75-0.849 2.59-0.844 1.08 0.00597 2.07 0.479 2.79 1.4 0.411 0.529 0.575 0.827 0.629 1.25 0.0933-1.19 0.0319-1.4-0.629-2.25-0.714-0.92-1.7-1.39-2.79-1.4zm8.32 6c-1.94 0-3.32 1.22-4.22 3.72-0.517 1.44-0.722 2.73-0.617 3.62 0.0685-0.761 0.269-1.66 0.617-2.62 0.898-2.5 2.28-3.72 4.22-3.72 1.16 0 1.97 0.567 2.44 1.69 0.371 0.897 0.637 2.8 0.678 4.36 0.0916-1.62-0.223-4.25-0.678-5.36-0.463-1.12-1.28-1.69-2.44-1.69zm9.11 0c-0.174-0.0013-0.376 0.0094-0.617 0.0273-1.44 0.11-2.22 0.599-2.91 1.83-0.412 0.732-0.483 1.1-0.428 2.34 0.0373-0.518 0.152-0.851 0.428-1.34 0.694-1.23 1.47-1.72 2.91-1.83 0.241-0.0179 0.443-0.0286 0.617-0.0273 0.522 0.0044 0.799 0.109 1.17 0.383 0.635 0.467 2.26 3.33 2.72 4.66 0.0785-0.154 0.131-0.31 0.131-0.465 0-0.81-2.1-4.65-2.85-5.2-0.372-0.274-0.65-0.378-1.17-0.383z" fill="#fff" opacity=".2"/><path d="m39.9 5.92c-0.516-0.0646-1.04 0.177-1.32 0.656l-1.81 3.14a24 24 0 0 0-26.5 11.3 24 24 0 0 0-3.19 12.2 24 24 0 0 1 3.19-11.2 24 24 0 0 1 26.5-11.3l1.81-3.14c0.37-0.64 1.18-0.858 1.82-0.488l9.24 5.33c0.272 0.157 0.45 0.402 0.557 0.672 0.26-0.612 0.0347-1.33-0.557-1.67l-9.24-5.33v-0.00195c-0.16-0.0923-0.33-0.146-0.502-0.168zm8.76 10.9-0.348 0.604a24 24 0 0 1 6.67 16.4 24 24 0 0 0-6.32-17.1z" fill="#fff" opacity=".1"/></svg>
