<svg xmlns="http://www.w3.org/2000/svg" viewBox="0 0 64 64" width="64" height="64"><path d="m34.4 5c-17.2 0-26.4 12.3-28 25.7-1.14 9.24 0.955 17.9 3.7 23.6 4.01 7.38 5.08 7.8 11.4 5.17 12.8-5.34 25.6-11.5 35.3-16.7 3.73-1.97 3.51-9.92 3.12-14.5-0.949-11.5-8.24-23.3-25.4-23.3z" opacity=".2"/><path d="m34.4 4c-17.2 0-26.4 12.3-28 25.7-1.14 9.24 0.955 17.9 3.7 23.6 4.01 7.38 5.08 7.8 11.4 5.17 12.8-5.34 25.6-11.5 35.3-16.7 3.73-1.97 3.51-9.92 3.12-14.5-0.949-11.5-8.24-23.3-25.4-23.3z" fill="#f4b932"/><path d="m34.4 4c-17.2 0-26.4 12.3-28 25.7-0.24 1.94-0.332 3.84-0.311 5.71 0.0182-1.54 0.114-3.11 0.311-4.71 1.66-13.4 10.9-25.7 28-25.7 17.2 0 24.5 11.8 25.4 23.3 0.103 1.25 0.163 2.76 0.164 4.31 0.00127 0.0501 0.00665 0.0904 0.00781 0.141 0.0526-1.96-0.0436-3.89-0.172-5.45-0.949-11.5-8.24-23.3-25.4-23.3z" fill="#fff" opacity=".2"/><path d="m30.2 21.2c-0.358 0.0108-0.711 0.0944-1.04 0.246-4.22 1.66-6.49 3.75-11.3 4.36-2.84 0.359-6.92 0.431-9.75 0.0857-1.63-0.221-3.08 1.08-3.08 2.77v11.7c4.68e-4 1.58 1.27 2.84 2.8 2.79 4.4-0.333 8.93-0.876 13-2.31 0 0 12.1-4.01 12.1-16.9 5e-4 -1.58-1.27-2.84-2.8-2.8z" fill="#444"/><circle cx="29.5" cy="26.5" r="2.5" opacity=".2"/><circle cx="29.5" cy="25.5" r="2.5" fill="#fff"/></svg>
